<svg xmlns="http://www.w3.org/2000/svg" width="160" height="28"><path fill="#F5F3F2" d="M46.78 17.02l-.19 2.31a.94.94 0 0 0 .95 1.04H53.89c.4 0 .77-.24.97-.58.17.19.37.34.61.45.26.12.55.18.86.18l9.87-.05.13-.01.14.01H69.87c.57 0 1.07-.47 1.12-1.04l.03-.41c.02-.19-.02-.35-.08-.5v-.06l.04-.38v-.04c.07-.14.12-.3.14-.45l.03-.42a.94.94 0 0 0-.94-1.03h-1.67c-.23 0-.45.08-.63.2a.89.89 0 0 0-.41-.19 4.75 4.75 0 0 0 .77-3.96 3.17 3.17 0 0 0-1.88-2.1 4.29 4.29 0 0 0-4.39.82v.01a3.2 3.2 0 0 0-1.48-.95 4.33 4.33 0 0 0-4.12 1.03l-.11.12-.17-.2a3.07 3.07 0 0 0-1.18-.82 4.25 4.25 0 0 0-3.94.45c.07-.12.1-.26.12-.4l.1-1.25a.93.93 0 0 0-.93-1.03h-1.5c-.53 0-1 .4-1.1.92l-.22-.2a3.8 3.8 0 0 0-1.24-.68 5.1 5.1 0 0 0-3.42.17c-.62.27-1.16.64-1.61 1.12-.45.46-.8 1-1.07 1.6a6.17 6.17 0 0 0-.31 3.83 3.9 3.9 0 0 0 2.22 2.7 4.57 4.57 0 0 0 3.45.07l.15-.06.28-.22h.86z"/><path fill="#2786C5" d="M45.17 16.29c-.37.15-.73.23-1.1.23a3.7 3.7 0 0 1-1.53-.3 3.05 3.05 0 0 1-1.72-2.1 4.93 4.93 0 0 1 .26-3.13c.2-.48.48-.9.83-1.27a3.77 3.77 0 0 1 2.82-1.16c.39 0 .76.06 1.1.17.36.12.67.3.95.52a2.52 2.52 0 0 1 .9 2H46.1a1.46 1.46 0 0 0-.49-.96 1.5 1.5 0 0 0-1-.32c-.37 0-.69.07-.96.21-.28.15-.5.35-.69.59-.18.24-.32.52-.42.83a4.3 4.3 0 0 0-.16 1.9c.05.31.14.58.29.82a1.61 1.61 0 0 0 1.51.8c.55 0 .98-.14 1.31-.43.32-.27.53-.68.62-1.2h-1.67l.11-1.26h3.17l-.34 4.11h-1.06l-.1-.86c-.32.39-.67.65-1.05.8M50.03 10.84l-.46 5.5h-1.5l.46-5.5h1.5zm-1.43-.86l.1-1.24h1.5l-.1 1.24h-1.5zM50.58 12.4c.16-.36.38-.66.65-.92a3.06 3.06 0 0 1 2.11-.79c.43 0 .82.07 1.15.2a2.32 2.32 0 0 1 1.34 1.5c.1.37.14.77.1 1.2-.04.44-.13.85-.3 1.2-.16.35-.38.66-.64.9a2.7 2.7 0 0 1-.94.59 3.35 3.35 0 0 1-2.33 0 2.25 2.25 0 0 1-1.33-1.5 3.2 3.2 0 0 1-.1-1.19c.03-.43.13-.83.3-1.19m1.2 1.84c.02.21.08.4.17.57.1.16.21.3.37.4.16.1.37.14.62.14.26 0 .48-.05.66-.15.18-.1.32-.23.44-.4.11-.16.2-.35.26-.56a3.36 3.36 0 0 0 .1-1.3c-.01-.2-.07-.4-.15-.56a1.1 1.1 0 0 0-1.01-.55c-.26 0-.47.05-.65.15-.18.1-.32.24-.44.4-.11.17-.2.36-.26.57a3.47 3.47 0 0 0-.1 1.3M59.13 11.82c-.25 0-.45.06-.62.17a1.5 1.5 0 0 0-.43.43c-.11.17-.2.36-.27.57-.06.21-.1.42-.11.63-.02.2-.01.4.02.6.02.21.07.4.15.56a1 1 0 0 0 .94.57c.35 0 .64-.1.85-.3.21-.2.35-.48.43-.82h1.44c-.15.74-.48 1.3-.98 1.68-.5.38-1.1.57-1.83.57-.41 0-.78-.07-1.11-.2a2.35 2.35 0 0 1-1.3-1.47c-.1-.35-.15-.72-.1-1.14.03-.43.12-.82.27-1.19a2.94 2.94 0 0 1 1.56-1.57 3.39 3.39 0 0 1 2.12-.1c.29.09.55.22.76.4.23.17.4.38.53.64.12.27.18.57.18.93h-1.47c-.05-.64-.39-.96-1.03-.96M62.04 12.4a2.78 2.78 0 0 1 1.58-1.5 3.28 3.28 0 0 1 2.32 0c.34.14.62.34.85.58.22.26.39.56.49.92.1.36.14.76.1 1.2-.04.43-.14.84-.3 1.18a2.72 2.72 0 0 1-1.59 1.5 3.33 3.33 0 0 1-2.32 0 2.2 2.2 0 0 1-1.34-1.5 3.57 3.57 0 0 1 .2-2.38m1.21 1.84c.03.21.08.4.17.57.09.16.21.3.38.4.16.1.37.14.61.14.25 0 .48-.05.66-.15.18-.1.32-.23.44-.4.12-.16.2-.35.26-.56a3.15 3.15 0 0 0 .11-1.3c-.03-.2-.08-.4-.17-.56-.09-.16-.22-.3-.38-.4-.16-.1-.37-.15-.62-.15-.26 0-.47.05-.65.15-.17.1-.32.24-.43.4-.12.17-.2.36-.27.57a3.18 3.18 0 0 0-.11 1.3"/><path fill="#243B56" d="M49.02 17.02l.27.04.2.14.11.2.02.24a.84.84 0 0 1-.1.35.64.64 0 0 1-.3.21l.15.09.08.12.05.15V19.16l.06.1h-.5l-.02-.25-.01-.28c0-.12-.04-.2-.09-.26-.05-.05-.13-.09-.26-.09h-.5l-.06.89h-.5l.2-2.26h1.2zm-.26 1.02a.4.4 0 0 0 .26-.08c.06-.06.1-.13.1-.25.01-.11 0-.19-.06-.24-.05-.05-.13-.07-.24-.07h-.55l-.05.64h.54zM51.6 17.02l-.04.4h-1.18l-.04.5h1.08l-.03.38h-1.08l-.05.55h1.2l-.02.42h-1.7l.18-2.25zM52.03 18.71l.1.13.15.08.19.02.14-.01.14-.04.12-.1.06-.14-.05-.14-.14-.1-.21-.06-.24-.07-.23-.08-.2-.12-.14-.18-.04-.26c0-.11.04-.22.1-.3l.21-.21.28-.13.3-.04c.12 0 .23 0 .34.04l.27.13.18.22c.05.1.06.2.05.34h-.48l-.03-.17-.09-.1-.13-.06-.16-.02-.12.01-.11.05-.09.09-.04.1.02.12.1.08.18.06.34.09.17.05.21.1.18.2c.04.08.06.18.05.3l-.08.3-.2.23a.99.99 0 0 1-.3.15 1.43 1.43 0 0 1-.77 0 .77.77 0 0 1-.3-.14l-.18-.25a.82.82 0 0 1-.05-.36h.48l.02.2M54.69 17.02c.13 0 .25.01.35.05l.22.17.12.22.02.28-.06.26-.16.23-.25.17a.92.92 0 0 1-.36.06h-.52l-.07.81h-.49l.2-2.25h1zm-.23 1.05h.17l.14-.05.1-.11.05-.17-.02-.18-.09-.1-.13-.05-.16-.01h-.38l-.06.67h.38zM55.53 17.68c.07-.15.15-.27.25-.38.1-.1.23-.19.37-.25a1.23 1.23 0 0 1 .93 0 .95.95 0 0 1 .5.63c.04.15.06.3.04.47-.01.17-.05.32-.12.46-.06.14-.14.27-.24.38a1.17 1.17 0 0 1-.84.34c-.17 0-.32-.04-.45-.1a.88.88 0 0 1-.33-.25c-.09-.1-.14-.23-.19-.37a1.57 1.57 0 0 1 .08-.93m.4.75l.08.24.17.18c.07.04.16.06.28.06a.6.6 0 0 0 .28-.06l.2-.18.13-.24.05-.28v-.28l-.09-.25-.17-.18-.27-.06a.67.67 0 0 0-.3.06l-.2.18-.12.25-.06.28.01.28M58.38 17.02l.81 1.5.13-1.5h.46l-.19 2.25h-.49l-.8-1.5h-.01l-.12 1.5h-.46l.19-2.25zM60.3 18.71l.1.13.15.08.18.02.15-.01.14-.04.12-.1.05-.14-.04-.14-.14-.1-.22-.07-.23-.06-.24-.08-.2-.12-.14-.18-.03-.26c0-.11.04-.22.09-.3l.21-.22.28-.12.3-.05c.13 0 .24.02.34.05l.28.12.18.23c.04.1.05.2.05.34h-.48l-.03-.17-.09-.1-.13-.06-.17-.02-.12.01-.1.05-.1.08-.03.12v.1l.1.09.2.06.33.09.17.05.22.1.17.2c.05.08.06.18.06.3l-.09.3-.2.23a.92.92 0 0 1-.3.15 1.46 1.46 0 0 1-.76 0 .71.71 0 0 1-.3-.14l-.19-.25a.7.7 0 0 1-.04-.36h.47l.03.2M63.06 17.02l.64 2.25h-.5l-.14-.5h-.83l-.22.5h-.5l1.04-2.25h.5zm-.09 1.38l-.21-.83h-.01l-.36.83h.58zM64.98 17.02l.3.02.21.1.13.17.03.27a.5.5 0 0 1-.1.28l-.24.18c.14.04.23.11.29.22.06.1.09.22.07.35 0 .12-.04.22-.1.3l-.18.21-.27.11-.3.04h-1.07l.18-2.26h1.05zm-.19 1.87l.14-.02.12-.05.09-.09.04-.14c.01-.12-.01-.2-.07-.25l-.25-.08h-.54l-.05.63h.53zm.06-.96l.22-.06.1-.2-.02-.14-.06-.08-.11-.04-.13-.01h-.45l-.05.53h.5zM66.47 17.02l-.18 2.25h-.5l.2-2.25zM67.24 17.02l-.16 1.84h1.1l-.03.41h-1.59l.19-2.25zM70.12 17.02l-.03.4h-1.18l-.04.5h1.09l-.04.38h-1.08l-.05.55H70l-.03.42h-1.7l.2-2.25z"/><g><path fill="#22A5DF" d="M97.77 14a6.78 6.78 0 1 1-13.57 0 6.78 6.78 0 0 1 13.57 0"/><path fill="#253D5B" d="M97.77 14h-.84a5.94 5.94 0 0 1-10.16 4.21 5.92 5.92 0 0 1 0-8.42 5.9 5.9 0 0 1 8.42 0A5.93 5.93 0 0 1 96.93 14h1.67a7.62 7.62 0 1 0-15.24 0 7.62 7.62 0 0 0 15.24 0h-.83z"/><path fill="#FFF" d="M87.47 17.01V13.5H86.1v-.83c.18 0 .37-.02.55-.05.18-.03.34-.09.48-.17.15-.1.27-.2.37-.35.1-.13.16-.3.19-.52h.88v5.44h-1.1zM89.18 12.3c.1-.19.25-.34.42-.46a2.22 2.22 0 0 1 1.25-.37c.33 0 .62.05.85.15.23.1.42.23.56.37a1.38 1.38 0 0 1 .4.93 1.13 1.13 0 0 1-.79 1.14v.02c.33.07.58.23.76.47.17.24.26.52.26.86 0 .3-.06.54-.17.76-.12.2-.27.38-.47.52-.2.14-.4.25-.65.32s-.5.1-.74.1c-.27 0-.53-.03-.77-.1a2.02 2.02 0 0 1-.66-.3 1.54 1.54 0 0 1-.64-1.29c0-.35.08-.63.27-.87.18-.23.43-.4.76-.47v-.01a1.01 1.01 0 0 1-.6-.41c-.14-.2-.2-.44-.2-.71 0-.24.05-.46.16-.65m.79 3.45l.2.29c.09.08.19.14.31.18a1.1 1.1 0 0 0 .74 0l.3-.18.2-.3c.04-.1.06-.23.06-.37a.86.86 0 0 0-.07-.35l-.2-.28-.3-.17a1.1 1.1 0 0 0-1.05.15.8.8 0 0 0-.27.64 1 1 0 0 0 .08.39m.3-2.17c.16.12.35.18.58.18.23 0 .42-.06.58-.18s.23-.3.23-.53l-.03-.24-.12-.24-.25-.2a.93.93 0 0 0-.41-.07l-.32.05-.26.15-.19.23a.7.7 0 0 0-.06.32c0 .23.08.4.25.53M95.51 13.8v-1.23h-.95v1.22h-1.23v.95h1.23v1.24h.95v-1.24h1.23v-.95z"/></g><g><path fill="#201E21" d="M7.19 24.04c-.1.04-.3.09-.54.09-.56 0-.98-.36-.98-1.02 0-.63.42-1.06 1.05-1.06.25 0 .4.06.48.1l-.07.2a.9.9 0 0 0-.4-.08c-.48 0-.78.3-.78.83 0 .5.28.8.77.8.16 0 .32-.02.42-.07l.05.2zM8.79 23.36c0 .54-.37.77-.72.77-.39 0-.7-.3-.7-.75 0-.47.33-.76.72-.76.42 0 .7.3.7.74m-1.15.02c0 .32.18.55.44.55.25 0 .44-.23.44-.56 0-.24-.12-.56-.44-.56-.3 0-.44.3-.44.57M9.12 23.04l-.01-.39h.23l.02.24a.52.52 0 0 1 .48-.27c.2 0 .51.12.51.61v.86h-.26v-.83c0-.23-.09-.43-.34-.43-.17 0-.3.12-.35.27l-.01.13v.86h-.27v-1.05zM11.81 24.05a.96.96 0 0 1-.41.08c-.44 0-.72-.3-.72-.74s.3-.77.78-.77c.15 0 .29.04.35.08l-.06.2a.6.6 0 0 0-.3-.07c-.33 0-.5.25-.5.55 0 .33.2.54.5.54.14 0 .24-.03.32-.07l.04.2zM12.03 23.94l.18-.19.18.19-.19.19zM13.35 23.04l-.01-.39h.23l.01.24h.01a.52.52 0 0 1 .48-.27c.2 0 .51.12.51.61v.86h-.27v-.83c0-.23-.08-.43-.33-.43-.17 0-.3.12-.35.27l-.02.13v.86h-.26v-1.05zM15.67 22.44c0 .24-.2.4-.4.4a.38.38 0 0 1-.4-.39c0-.23.19-.4.41-.4.24 0 .39.18.39.39m-.63.01c0 .15.1.24.23.24.14 0 .24-.1.24-.25 0-.11-.07-.25-.24-.25-.15 0-.23.13-.23.26M17.09 22.4h-.01l-.34.18-.05-.2.42-.22h.22v1.93h-.24zM19.2 22.38h-.74l-.07.49h.16c.15 0 .3.02.42.1.15.08.27.25.27.5 0 .37-.3.66-.72.66a1 1 0 0 1-.48-.12l.06-.2c.08.04.24.1.42.1.25 0 .46-.15.45-.42 0-.25-.16-.42-.55-.42l-.27.02.13-.93h.93v.21zM20.87 23.1c0 .66-.24 1.03-.67 1.03-.38 0-.64-.36-.65-1 0-.65.3-1 .68-1 .4 0 .64.36.64.97m-1.05.03c0 .5.15.8.4.8.26 0 .39-.32.39-.81 0-.48-.12-.8-.4-.8-.23 0-.39.28-.39.81M22.41 23.1c0 .66-.25 1.03-.67 1.03-.39 0-.64-.36-.65-1 0-.65.28-1 .68-1s.64.36.64.97m-1.06.03c0 .5.16.8.4.8.26 0 .4-.32.4-.81 0-.48-.13-.8-.4-.8-.23 0-.4.28-.4.81M23.91 22.16v.17l-.85 1.77h-.27l.85-1.72h-.95v-.22z"/><path fill="#009540" d="M11.01 11.82a9.75 9.75 0 0 0-5.96 8.98H2.81c0-4.92 2.97-9.14 7.2-11"/><path fill="#E20613" d="M19.48 9.76A12 12 0 0 1 26.8 20.8h-2.24c0-4.04-2.45-7.5-5.96-8.98"/><path fill="#FFF" d="M18.6 11.81a9.74 9.74 0 0 0-7.65-.03l-.88-2.06a11.97 11.97 0 0 1 9.41.03l-.87 2.06z"/><path fill="#164193" d="M24.57 20.98v-.19h.2-.2v.2h-.19v-.2a9.53 9.53 0 0 0-9.56-9.56 9.53 9.53 0 0 0-9.56 9.56v.2H2.64v-.2a12.18 12.18 0 1 1 24.37 0v.2h-2.44zm2.05-.38A11.78 11.78 0 0 0 14.82 9a11.76 11.76 0 0 0-11.8 11.6h1.86a9.94 9.94 0 1 1 19.88 0h1.86z"/><path fill="#164193" d="M28.1 15a.44.44 0 0 0-.59-.23l-10.93 4.58a2.16 2.16 0 0 0-.4-.36l4.58-10.92a.44.44 0 1 0-.8-.35L15.1 18.56a2.18 2.18 0 0 0-.6.02L9.65 7.72c-.1-.23-.35-.34-.58-.24s-.33.36-.23.6l4.6 10.98c-.12.1-.23.2-.34.33l-11-4.62c-.24-.1-.5 0-.6.23-.1.23.01.48.24.58l10.9 4.89-.02.32h4.48c0-.12-.02-.25-.04-.37l10.8-4.84c.23-.1.34-.35.24-.59M16 7.01h.78l.1-1.41v-.53s.1.33.18.53l.33.9h.66l.33-.9.17-.53h.01s-.02.3 0 .53l.1 1.41h.77l-.26-3.14h-.83l-.46 1.33-.16.52-.16-.52-.46-1.33h-.84l-.25 3.14zM12.21 7.01h.8l-1.08-3.14h-.8l-1.07 3.14h.79l.19-.66h.98l.2.66zm-.68-2.42s.07.34.13.54l.18.6h-.62l.18-.6c.06-.2.13-.54.13-.54zM13.13 7h1.12c.99 0 1.62-.59 1.62-1.57s-.63-1.57-1.62-1.57h-1.12v3.14zm.77-.66V4.53h.32c.51 0 .85.3.85.9 0 .6-.32.92-.85.92h-.32z"/></g><g><path fill="#039" d="M121.9 4.34l.3.8.84.03-.66.53.22.81-.7-.45-.71.46.22-.82-.66-.53.84-.04.3-.79zM126.74 5.66l-.13.83.7.46-.83.13-.22.82-.38-.76-.84.05.6-.6-.3-.78.74.38.66-.53zM130.24 9.18l-.53.66.38.75-.78-.3-.6.6.05-.85-.75-.38.8-.22.14-.83.46.7.83-.13zM131.52 13.97l-.78.31-.04.84-.53-.65-.81.22.45-.7-.46-.7.81.2.53-.65.05.84.78.3zM130.24 18.81l-.83-.12-.46.7-.13-.83-.81-.2.74-.4-.05-.84.6.6.79-.31-.38.75.53.65zM126.8 22.3l-.67-.51-.74.39.29-.79-.6-.59.83.04.37-.76.23.81.84.12-.7.47.14.83zM121.89 23.66l-.3-.79-.85-.04.65-.53-.22-.81.7.45.71-.46-.21.81.65.53-.83.05-.3.79zM117.1 22.4l.13-.83-.71-.45.83-.14.2-.82.4.75.84-.06-.6.6.32.79-.76-.38-.64.54zM113.58 18.95l.52-.67-.4-.74.8.29.57-.6-.02.83.75.37-.8.23-.13.84-.46-.7-.83.14zM112.21 14.02l.79-.3.04-.85.53.66.81-.23-.45.71.46.7-.81-.2-.53.65-.05-.84-.79-.3zM113.49 9.2l.83.13.46-.71.13.83.82.21-.75.39.05.84-.6-.6-.78.32.38-.76-.54-.65zM117.05 5.63l.65.53.75-.38-.3.79.6.59-.84-.04-.38.75-.22-.82-.83-.12.7-.46-.13-.84zM120.9 12.71c.63.24 1.08.42 1.62.59a6.03 6.03 0 0 0 3.59 0c.34-.1.65-.28.92-.5v.01l.93-.72h-4.65l-1.42-4.57-1.41 4.58h-1.28c.57.18 1.14.4 1.7.61z"/><path fill="#009A48" d="M118.1 13.15c.97.25 1.89.6 2.8.94.63.24 1.08.42 1.62.6.55.16 1.13.25 1.73.26l.99-.76a6.11 6.11 0 0 1-2.72-.2c-.54-.17-1-.35-1.62-.59-.91-.35-1.83-.69-2.8-.94-.48-.12-.99-.19-1.51-.19h-.02c-.16 0-.32.02-.47.04l.86.67c.4.02.78.08 1.15.17z"/><path fill="#C20E1A" d="M119.58 15c.45.15.89.31 1.32.48.63.24 1.08.42 1.62.59a6.03 6.03 0 0 0 2.08.26l-.2-.69h-.1c-.61 0-1.22-.1-1.78-.27-.54-.16-1-.34-1.62-.58-.91-.35-1.83-.7-2.8-.94l1.48 1.14z"/><path fill="#039" d="M124.3 17.03a6 6 0 0 1-1.78-.27c-.54-.17-1-.35-1.62-.6l-1.5-.54-1.23 4 3.72-2.84 3.72 2.85-.8-2.63c-.17.02-.33.03-.5.03z"/><path fill="#6886C4" d="M138.38 11.82h.78l-1.05-3.08h-.79l-1.04 3.08h.77l.18-.65h.97l.18.65zm-.66-2.38s.07.34.13.53l.17.6h-.6l.17-.6.12-.53h.01zm2.09.83c0 1.01.72 1.6 1.5 1.6.52 0 .81-.27.81-.27h.01v.22h.63v-1.74h-1.1v.64h.43v.24s-.26.22-.62.22c-.48 0-.89-.35-.89-.93 0-.46.27-.87.91-.87.44 0 .75.28.75.28l.36-.56s-.4-.4-1.18-.4c-.94-.01-1.61.68-1.61 1.57zm4.04 1.55h1.99v-.65h-1.24v-.58h.94v-.64h-.94v-.56h1.18v-.65h-1.93v3.08zm3.06 0h.75v-1.44c0-.19-.03-.52-.03-.52s.14.32.26.52l.86 1.44h.76V8.74h-.76v1.44c0 .2.04.52.04.52h-.01s-.14-.32-.26-.52l-.85-1.44h-.76v3.08zm3.65 0h2.4v-.65h-1.21l-.24.01s.1-.1.24-.28l1.19-1.7v-.46h-2.33v.65h1.14c.13 0 .23-.02.23-.02v.01s-.1.1-.23.28l-1.2 1.69v.47zm3.47 0h.75V8.74h-.75v3.08zm3.73 0h.77l-1.04-3.08h-.8l-1.04 3.08h.78l.18-.65h.96l.19.65zm-.66-2.38l.12.53.18.6h-.61l.18-.6.12-.53z"/><path fill="#039" d="M136.3 19.38h.76l.1-1.39c.02-.23 0-.52 0-.52l.18.52.32.9h.65l.32-.9.17-.52h.01s-.02.29 0 .52l.1 1.39h.75l-.25-3.08h-.82l-.45 1.3-.15.5-.16-.5-.45-1.3h-.82l-.25 3.08zm3.55-1.56c0 .9.68 1.6 1.6 1.6.94 0 1.62-.7 1.62-1.6 0-.88-.68-1.57-1.61-1.57s-1.61.69-1.61 1.57zm.78 0c0-.5.37-.88.83-.88.46 0 .83.37.83.88 0 .52-.37.92-.83.92-.46 0-.83-.4-.83-.92zm2.72 1.56h.76v-1.44c0-.19-.04-.52-.04-.52h.01s.14.32.26.52l.85 1.44h.76V16.3h-.75v1.44c0 .2.03.52.03.52s-.14-.32-.26-.52l-.86-1.44h-.76v3.08zm2.89-1.56c0 .9.68 1.6 1.6 1.6.94 0 1.62-.7 1.62-1.6 0-.88-.69-1.57-1.61-1.57-.93 0-1.61.69-1.61 1.57zm.78 0c0-.5.37-.88.83-.88s.83.37.83.88c0 .52-.37.92-.83.92s-.83-.4-.83-.92zm2.72 1.56h.75v-.95h.53c.6 0 1-.45 1-1.07s-.4-1.06-1-1.06h-1.28v3.08zm.75-1.6v-.84h.39c.25 0 .37.17.37.42 0 .24-.12.42-.39.42h-.37zm1.54.04c0 .9.68 1.6 1.61 1.6s1.61-.7 1.61-1.6c0-.88-.68-1.57-1.61-1.57s-1.6.69-1.6 1.57zm.78 0c0-.5.37-.88.83-.88.46 0 .83.37.83.88 0 .52-.37.92-.83.92-.46 0-.83-.4-.83-.92zm2.73 1.56h2v-.65h-1.25V16.3h-.75v3.08zm2.2 0h.74V16.3h-.75v3.08zM136.31 15.59h1.1c.96 0 1.58-.58 1.58-1.55s-.62-1.53-1.59-1.53h-1.09v3.08zm.75-.65v-1.78h.31c.51 0 .84.3.84.88 0 .6-.32.9-.84.9h-.3zm3.05-.91c0 .9.68 1.6 1.6 1.6.94 0 1.62-.7 1.62-1.6 0-.88-.68-1.57-1.61-1.57s-1.61.69-1.61 1.57zm.78 0c0-.5.37-.88.83-.88.46 0 .83.38.83.88 0 .52-.37.92-.83.92-.46 0-.83-.4-.83-.92zm3.54.01c0 1.01.73 1.6 1.51 1.6.52 0 .81-.27.81-.27h.01v.22h.63v-1.74h-1.1v.64h.43v.24s-.26.22-.63.22c-.47 0-.88-.35-.88-.93 0-.46.27-.87.91-.87.44 0 .75.28.75.28l.36-.56s-.4-.4-1.18-.4c-.94-.01-1.62.68-1.62 1.57zm6.05 1.55h.78l-1.05-3.08h-.8l-1.04 3.08h.78l.18-.65h.96l.2.65zm-.66-2.38l.12.53.18.6h-.61l.18-.6.12-.53zm2.58 2.38h.75v-1.44c0-.19-.03-.52-.03-.52s.15.32.27.52l.85 1.44h.76V12.5h-.75v1.44c0 .2.03.52.03.52s-.15-.32-.27-.52l-.85-1.44h-.76v3.08zm4.12 0h1.99v-.65h-1.24v-.58h.94v-.64h-.94v-.56h1.18v-.65h-1.93v3.08z"/><path fill="#2C4390" d="M133.8 4.34v19.32h.27V4.34h-.27z"/></g></svg>